<svg width="24" height="24" viewBox="0 0 24 24" fill="none" xmlns="http://www.w3.org/2000/svg">
<path fill-rule="evenodd" clip-rule="evenodd" d="M21.4559 5.41595C21.5509 5.56016 21.5932 5.73273 21.5757 5.90454C21.5582 6.07634 21.482 6.23685 21.3599 6.35895L12.1669 15.551C12.0728 15.6449 11.9555 15.7122 11.8269 15.746L7.99787 16.746C7.8713 16.779 7.7383 16.7783 7.61206 16.744C7.48583 16.7097 7.37076 16.6431 7.27826 16.5506C7.18577 16.4581 7.11908 16.343 7.0848 16.2168C7.05053 16.0905 7.04986 15.9575 7.08287 15.831L8.08287 12.003C8.11206 11.888 8.16713 11.7813 8.24387 11.691L17.4709 2.46995C17.6115 2.3295 17.8021 2.25061 18.0009 2.25061C18.1996 2.25061 18.3902 2.3295 18.5309 2.46995L21.3599 5.29795C21.3958 5.33396 21.4279 5.37349 21.4559 5.41595ZM19.7689 5.82795L18.0009 4.06095L9.48287 12.579L8.85787 14.972L11.2509 14.347L19.7689 5.82795Z" fill="#425466"/>
<path d="M19.6415 17.16C19.9149 14.824 20.0021 12.4699 19.9025 10.12C19.9004 10.0646 19.9096 10.0094 19.9298 9.95782C19.9499 9.9062 19.9805 9.85928 20.0195 9.82001L21.0035 8.83601C21.0304 8.80897 21.0646 8.79027 21.1018 8.78215C21.1391 8.77404 21.1779 8.77686 21.2136 8.79027C21.2493 8.80368 21.2803 8.82712 21.303 8.85776C21.3257 8.88841 21.3391 8.92495 21.3415 8.96301C21.5267 11.7542 21.4565 14.5566 21.1315 17.335C20.8955 19.357 19.2715 20.942 17.2585 21.167C13.7639 21.554 10.2372 21.554 6.74254 21.167C4.73054 20.942 3.10554 19.357 2.86954 17.335C2.45494 13.7904 2.45494 10.2096 2.86954 6.66501C3.10554 4.64301 4.72954 3.05801 6.74254 2.83301C9.39491 2.53889 12.0673 2.46764 14.7315 2.62001C14.7697 2.62275 14.8062 2.63635 14.8369 2.65922C14.8675 2.68209 14.8909 2.71325 14.9044 2.74903C14.9179 2.78481 14.9208 2.82369 14.9128 2.86108C14.9049 2.89847 14.8864 2.93281 14.8595 2.96001L13.8665 3.95201C13.8277 3.99076 13.7812 4.02113 13.7302 4.04125C13.6791 4.06137 13.6244 4.07082 13.5695 4.06901C11.3463 3.99343 9.1205 4.07866 6.90954 4.32401C6.26348 4.39552 5.6604 4.68273 5.1977 5.13926C4.735 5.59579 4.43972 6.19497 4.35954 6.84001C3.95859 10.2683 3.95859 13.7317 4.35954 17.16C4.43972 17.805 4.735 18.4042 5.1977 18.8608C5.6604 19.3173 6.26348 19.6045 6.90954 19.676C10.2645 20.051 13.7365 20.051 17.0925 19.676C17.7386 19.6045 18.3417 19.3173 18.8044 18.8608C19.2671 18.4042 19.5614 17.805 19.6415 17.16Z" fill="#425466"/>
</svg>
