<svg width="21" height="22" viewBox="0 0 21 22" fill="none" xmlns="http://www.w3.org/2000/svg">
<path d="M6.125 16.25V14.0625M6.125 14.0625V12.75C6.125 12.3379 6.125 12.1314 6.25975 12.0027C6.3945 11.875 6.61063 11.875 7.04375 11.875H7.65625C8.29063 11.875 8.80512 12.365 8.80512 12.9688C8.80512 13.5725 8.29063 14.0625 7.65625 14.0625H6.125ZM18.375 11.875H17.227C16.5051 11.875 16.1438 11.875 15.9198 12.0885C15.6958 12.302 15.6957 12.6459 15.6957 13.3336V14.0625M15.6957 14.0625V16.25M15.6957 14.0625H17.6094M13.7812 14.0625C13.7812 15.27 12.7531 16.25 11.4844 16.25C11.1983 16.25 11.0556 16.25 10.948 16.1914C10.6934 16.0514 10.7188 15.767 10.7188 15.5211V12.6039C10.7188 12.358 10.6925 12.0736 10.948 11.9336C11.0548 11.875 11.1983 11.875 11.4844 11.875C12.7531 11.875 13.7812 12.855 13.7812 14.0625Z" stroke="#425466" stroke-width="1.5" stroke-linecap="round" stroke-linejoin="round"/>
<path d="M13.125 19.75H9.38613C6.53363 19.75 5.10563 19.75 4.11513 19.0517C3.83324 18.8541 3.58128 18.6168 3.367 18.3474C2.625 17.4146 2.625 16.0724 2.625 13.3861V11.1593C2.625 8.56663 2.625 7.26987 3.03538 6.23475C3.69513 4.56962 5.08988 3.25712 6.85913 2.63587C7.95813 2.25 9.3345 2.25 12.0907 2.25C13.664 2.25 14.4515 2.25 15.0797 2.4705C16.0904 2.82575 16.8875 3.57563 17.2646 4.52675C17.5 5.11825 17.5 5.85937 17.5 7.34075V9.25" stroke="#425466" stroke-width="1.5" stroke-linecap="round" stroke-linejoin="round"/>
<path d="M2.625 11C2.625 10.2265 2.93226 9.48474 3.47919 8.93781C4.02611 8.39089 4.7679 8.08362 5.54138 8.08362C6.12413 8.08362 6.811 8.18512 7.37712 8.03375C7.62449 7.96718 7.85002 7.83674 8.03108 7.65553C8.21214 7.47431 8.34239 7.24868 8.40875 7.00125C8.56012 6.43512 8.45862 5.74825 8.45862 5.1655C8.45886 4.39218 8.76622 3.65061 9.31312 3.10388C9.86002 2.55714 10.6017 2.25 11.375 2.25" stroke="#425466" stroke-width="1.5" stroke-linecap="round" stroke-linejoin="round"/>
</svg>
