<svg width="19" height="15" viewBox="0 0 19 15" fill="none" xmlns="http://www.w3.org/2000/svg">
<path fill-rule="evenodd" clip-rule="evenodd" d="M0.114027 0.926C0.227567 0.651878 0.419852 0.417585 0.666561 0.252756C0.913271 0.0879266 1.20332 -3.36725e-05 1.50003 9.66967e-09H11.5C13.4892 9.66967e-09 15.3968 0.790176 16.8033 2.1967C18.2099 3.60322 19 5.51088 19 7.5C19 9.48912 18.2099 11.3968 16.8033 12.8033C15.3968 14.2098 13.4892 15 11.5 15H2.50003C2.1022 15 1.72067 14.842 1.43937 14.5607C1.15806 14.2794 1.00003 13.8978 1.00003 13.5C1.00003 13.1022 1.15806 12.7206 1.43937 12.4393C1.72067 12.158 2.1022 12 2.50003 12H11.5C12.6935 12 13.8381 11.5259 14.682 10.682C15.5259 9.83807 16 8.69347 16 7.5C16 6.30653 15.5259 5.16193 14.682 4.31802C13.8381 3.47411 12.6935 3 11.5 3H5.12103L6.06103 3.94C6.33413 4.22303 6.48515 4.60201 6.48155 4.9953C6.47795 5.3886 6.32001 5.76474 6.04177 6.04273C5.76353 6.32071 5.38723 6.47828 4.99393 6.48151C4.60063 6.48475 4.2218 6.33337 3.93903 6.06L0.439027 2.56C0.229412 2.35026 0.0866646 2.0831 0.0288188 1.79227C-0.029027 1.50144 0.000624657 1.19999 0.114027 0.926Z" fill="black"/>
</svg>
