<svg width="20" height="20" viewBox="0 0 20 20" fill="none" xmlns="http://www.w3.org/2000/svg">
<rect width="20" height="20" fill="white"/>
<path d="M15.6278 18.6469L11.6054 14.6245C12.572 13.464 13.054 11.9756 12.9511 10.4688C12.8483 8.96208 12.1685 7.55297 11.0532 6.53465C9.93784 5.51633 8.47285 4.96721 6.96297 5.00152C5.45308 5.03582 4.01455 5.65092 2.94663 6.71884C1.8787 7.78677 1.26361 9.2253 1.2293 10.7352C1.19499 12.2451 1.74411 13.7101 2.76243 14.8254C3.78075 15.9407 5.18986 16.6205 6.69663 16.7234C8.2034 16.8262 9.69181 16.3442 10.8522 15.3776L14.8746 19.4L15.6278 18.6469ZM2.31209 10.878C2.31209 9.92986 2.59323 9.00306 3.11996 8.21474C3.64669 7.42643 4.39536 6.81202 5.27129 6.4492C6.14721 6.08638 7.11105 5.99145 8.04093 6.17641C8.97081 6.36138 9.82496 6.81793 10.4954 7.48833C11.1658 8.15873 11.6223 9.01288 11.8073 9.94276C11.9922 10.8726 11.8973 11.8365 11.5345 12.7124C11.1717 13.5883 10.5573 14.337 9.76895 14.8637C8.98063 15.3905 8.05383 15.6716 7.10574 15.6716C5.83481 15.6702 4.61635 15.1647 3.71767 14.266C2.81899 13.3673 2.3135 12.1489 2.31209 10.878Z" fill="black" fill-opacity="0.8"/>
</svg>
