<svg width="46" height="47" viewBox="0 0 46 47" fill="none" xmlns="http://www.w3.org/2000/svg">
<rect y="0.5" width="46" height="46" rx="8" fill="#FFEEF1"/>
<mask id="mask0_580_34332" style="mask-type:alpha" maskUnits="userSpaceOnUse" x="14" y="14" width="18" height="19">
<path fill-rule="evenodd" clip-rule="evenodd" d="M18.5 26.875H16.25V30.25H18.5V26.875ZM24.125 22.375H21.875V30.25H24.125V22.375ZM29.75 16.75L27.5 16.75V30.25H29.75V16.75ZM27.5 15.625C26.8787 15.625 26.375 16.1287 26.375 16.75V30.25C26.375 30.8713 26.8787 31.375 27.5 31.375H29.75C30.3713 31.375 30.875 30.8713 30.875 30.25V16.75C30.875 16.1287 30.3713 15.625 29.75 15.625H27.5ZM20.75 22.375C20.75 21.7537 21.2537 21.25 21.875 21.25H24.125C24.7463 21.25 25.25 21.7537 25.25 22.375V30.25C25.25 30.8713 24.7463 31.375 24.125 31.375H21.875C21.2537 31.375 20.75 30.8713 20.75 30.25V22.375ZM15.125 26.875C15.125 26.2537 15.6287 25.75 16.25 25.75H18.5C19.1213 25.75 19.625 26.2537 19.625 26.875V30.25C19.625 30.8713 19.1213 31.375 18.5 31.375H16.25C15.6287 31.375 15.125 30.8713 15.125 30.25V26.875Z" fill="black"/>
</mask>
<g mask="url(#mask0_580_34332)">
<rect x="14" y="14.5" width="18" height="18" fill="#FF92AE"/>
</g>
</svg>
