<svg width="18" height="16" viewBox="0 0 18 16" fill="none" xmlns="http://www.w3.org/2000/svg">
<path d="M13.0001 4.61523V1.61523H5.00015V4.61523H4.00015V0.615234H14.0001V4.61523H13.0001ZM14.6151 8.11523C14.8985 8.11523 15.1361 8.01923 15.3281 7.82723C15.5201 7.63523 15.6158 7.3979 15.6151 7.11523C15.6145 6.83257 15.5188 6.5949 15.3281 6.40223C15.1375 6.20957 14.8998 6.11357 14.6151 6.11423C14.3305 6.1149 14.0931 6.2109 13.9031 6.40223C13.7131 6.59357 13.6171 6.83123 13.6151 7.11523C13.6131 7.39923 13.7091 7.63657 13.9031 7.82723C14.0971 8.0179 14.3338 8.1139 14.6151 8.11523ZM13.0001 14.9992V10.4612H5.00015V14.9992H13.0001ZM14.0001 15.9992H4.00015V11.9992H0.577148V6.61523C0.577148 6.04857 0.769482 5.57357 1.15415 5.19023C1.53882 4.8069 2.01315 4.6149 2.57715 4.61423H15.4231C15.9898 4.61423 16.4648 4.80623 16.8481 5.19023C17.2315 5.57423 17.4231 6.0489 17.4231 6.61423V11.9992H14.0001V15.9992ZM16.4231 10.9992V6.61523C16.4231 6.3319 16.3275 6.09423 16.1361 5.90223C15.9448 5.71023 15.7071 5.61423 15.4231 5.61423H2.57715C2.29382 5.61423 2.05648 5.71023 1.86515 5.90223C1.67381 6.09423 1.57782 6.3319 1.57715 6.61523V10.9992H4.00015V9.46123H14.0001V10.9992H16.4231Z" fill="#3754DB"/>
</svg>
