<svg width="12" height="12" viewBox="0 0 12 12" fill="none" xmlns="http://www.w3.org/2000/svg">
<mask id="mask0_587_30206" style="mask-type:alpha" maskUnits="userSpaceOnUse" x="0" y="0" width="12" height="12">
<g clip-path="url(#clip0_587_30206)">
<path fill-rule="evenodd" clip-rule="evenodd" d="M0.375 7.42502C0.582107 7.42502 0.75 7.59291 0.75 7.80002V9.67502C0.75 10.0892 1.08579 10.425 1.5 10.425H10.5C10.9142 10.425 11.25 10.0892 11.25 9.67502V7.80002C11.25 7.59291 11.4179 7.42502 11.625 7.42502C11.8321 7.42502 12 7.59291 12 7.80002V9.67502C12 10.5034 11.3284 11.175 10.5 11.175H1.5C0.671573 11.175 0 10.5034 0 9.67502V7.80002C0 7.59291 0.167893 7.42502 0.375 7.42502Z" fill="black"/>
<path fill-rule="evenodd" clip-rule="evenodd" d="M5.73484 0.859835C5.88128 0.713388 6.11872 0.713388 6.26517 0.859835L8.51517 3.10984C8.66161 3.25628 8.66161 3.49372 8.51517 3.64016C8.36872 3.78661 8.13128 3.78661 7.98483 3.64016L6.375 2.03033V8.625C6.375 8.83211 6.20711 9 6 9C5.79289 9 5.625 8.83211 5.625 8.625V2.03033L4.01516 3.64016C3.86872 3.78661 3.63128 3.78661 3.48484 3.64016C3.33839 3.49372 3.33839 3.25628 3.48484 3.10984L5.73484 0.859835Z" fill="black"/>
</g>
</mask>
<g mask="url(#mask0_587_30206)">
<rect width="12" height="12" fill="white"/>
</g>
<defs>
<clipPath id="clip0_587_30206">
<rect width="12" height="12" fill="white"/>
</clipPath>
</defs>
</svg>
